:version 1.10
:name ASF
:units
  mass 1
  length 1
  angle deg
:documentation
  ASF file generated by Kaydara
:root
  axis xyz
  order  tx ty tz rx ry rz
  position 0 0 0
  orientation 0 0 0
:bonedata
  begin
    id 1
    name LeftUpLegDummy
    direction 1 -2.30186e-007 -8.31532e-007
    length 2.93387
    axis 0 0 0 xyz
  end
  begin
    id 2
    name LeftUpLeg
    direction -1.82929e-007 -1 -1.48925e-009
    length 17.3336
    axis -3.48766 0.00143442 -0.000521554 xyz
    dof rx ry rz
  end
  begin
    id 3
    name LeftLeg
    direction -1.82929e-007 -1 -5.23717e-011
    length 14.9995
    axis 3.68178 -0.00654042 -0.000282425 xyz
    dof rx ry rz
  end
  begin
    id 4
    name LeftFoot
    direction 8.31532e-007 -4.54534e-011 1
    length 6.74421
    axis 1.87234e-006 4.66016e-005 -5.96866e-006 xyz
    dof rx ry rz
  end
  begin
    id 5
    name LeftToes
    direction 0.00818058 -0.00485161 0.999955
    length 3.85048
    axis 1.06247e-005 4.65869e-005 -5.96999e-006 xyz
    dof rx ry rz
  end
  begin
    id 6
    name SpineDummy
    direction -5.8607e-008 0.943407 -0.331637
    length 5.93572
    axis 0 0 0 xyz
  end
  begin
    id 7
    name Spine
    direction -1.04988e-007 0.999988 0.00495137
    length 10.1015
    axis -0.001389 0.000121417 6.61666e-006 xyz
    dof rx ry rz
  end
  begin
    id 8
    name Spine1
    direction 0 0 0
    length 0
    axis -0.001389 0.00012144 6.56766e-006 xyz
    dof rx ry rz
  end
  begin
    id 9
    name RightShoulderDummy
    direction -0.98348 0.17941 -0.0240696
    length 3.59882
    axis -0.001389 0.00012144 6.56766e-006 xyz
  end
  begin
    id 10
    name RightShoulder
    direction -0.978693 0.204882 0.0135597
    length 2.70001
    axis 0.215806 0.000203631 -0.00679732 xyz
    dof rx ry rz
  end
  begin
    id 11
    name RightArm
    direction -1 3.85509e-006 8.31394e-007
    length 10.2459
    axis -23.2009 -0.134239 -0.964098 xyz
    dof rx ry rz
  end
  begin
    id 12
    name RightForeArm
    direction -1 3.85569e-006 8.3129e-007
    length 8.16799
    axis -9.92322 0.0658061 0.17887 xyz
    dof rx ry rz
  end
  begin
    id 13
    name RightHand
    direction -0.992843 -0.0414604 0.112003
    length 5.28593
    axis -0.00960638 0.00330669 -0.185225 xyz
    dof rx ry rz
  end
  begin
    id 14
    name LeftShoulder1Dummy
    direction 0.983523 0.179172 -0.0240748
    length 3.59866
    axis -0.001389 0.00012144 6.56766e-006 xyz
  end
  begin
    id 15
    name LeftShoulder1
    direction 0.978627 0.205195 0.0135605
    length 2.70019
    axis -0.001389 0.00012144 6.57583e-006 xyz
    dof rx ry rz
  end
  begin
    id 16
    name LeftArm
    direction 1 3.51895e-006 -8.60188e-007
    length 10.2459
    axis -23.1894 0.134785 0.967513 xyz
    dof rx ry rz
  end
  begin
    id 17
    name LeftForeArm
    direction 1 3.51921e-006 -7.32029e-007
    length 8.16799
    axis -9.91835 -0.0656957 -0.177789 xyz
    dof rx ry rz
  end
  begin
    id 18
    name LeftHand
    direction 0.992938 -0.0411636 0.11126
    length 5.32135
    axis -0.00960237 -0.00340661 0.185177 xyz
    dof rx ry rz
  end
  begin
    id 19
    name HEadDummy
    direction 1.01974e-006 0.999861 -0.016675
    length 2.99946
    axis -0.001389 0.00012144 6.56766e-006 xyz
  end
  begin
    id 20
    name HEad
    direction -0.0222689 0.980941 0.193023
    length 5.12695
    axis -0.001389 0.00012144 6.56766e-006 xyz
    dof rx ry rz
  end
  begin
    id 21
    name RightUpLegDummy
    direction -1 2.30186e-007 8.31532e-007
    length 2.93387
    axis 0 0 0 xyz
  end
  begin
    id 22
    name RightUpLeg
    direction -1.82966e-007 -1 1.56832e-007
    length 17.3336
    axis -3.4909 -0.000906625 0.00028951 xyz
    dof rx ry rz
  end
  begin
    id 23
    name RightLeg
    direction -1.82786e-007 -1 -1.80317e-007
    length 14.9995
    axis 3.68513 0.0193739 -0.131021 xyz
    dof rx ry rz
  end
  begin
    id 24
    name RightFoot
    direction 8.31721e-007 -4.63324e-011 1
    length 6.74421
    axis 4.81691e-005 -0.120479 -0.188785 xyz
    dof rx ry rz
  end
  begin
    id 25
    name RightToes
    direction 0.00124746 -0.014064 0.9999
    length 3.85082
    axis 0.000481921 0.542163 -0.142575 xyz
    dof rx ry rz
  end
:hierarchy
  begin
    root LeftUpLegDummy SpineDummy RightUpLegDummy
    LeftUpLegDummy LeftUpLeg
    LeftUpLeg LeftLeg
    LeftLeg LeftFoot
    LeftFoot LeftToes
    SpineDummy Spine
    Spine Spine1
    Spine1 RightShoulderDummy LeftShoulder1Dummy HEadDummy
    RightShoulderDummy RightShoulder
    RightShoulder RightArm
    RightArm RightForeArm
    RightForeArm RightHand
    LeftShoulder1Dummy LeftShoulder1
    LeftShoulder1 LeftArm
    LeftArm LeftForeArm
    LeftForeArm LeftHand
    HEadDummy HEad
    RightUpLegDummy RightUpLeg
    RightUpLeg RightLeg
    RightLeg RightFoot
    RightFoot RightToes
  end

:SAMPLES-PER-SECOND 30
:FULLY-SPECIFIED
:DEGREES
197
root  1.80865 33.8549 -9.19558 -2.8425 45.7009 -3.92286
LeftUpLeg  0.874357 -10.3387 10.6831
LeftLeg  12.3263 -12.2292 -1.84588
LeftFoot  -4.58807 0.0396659 0.990129
LeftToes  -26.4103 8.556e-007 1.17171e-007
Spine  1.26661 1.08343 -1.09565
Spine1  2.2472 2.11725 -2.11492
RightShoulder  0.0454133 6.82169 5.65762
RightArm  -23.4125 -5.67329 75.5064
RightForeArm  25.683 24.142 4.52777
RightHand  0.997146 -12.6311 -8.61697
LeftShoulder1  0.0393748 -1.77813 -7.5085
LeftArm  -8.77527 3.20126 -69.8345
LeftForeArm  24.5075 -30.1548 -5.87361
LeftHand  0.109905 2.81011 4.09846
HEad  -48.0003 10.1752 -12.4446
RightUpLeg  -6.88185 -10.8626 -4.0843
RightLeg  11.2586 0.234036 0.0323807
RightFoot  6.08666 0.0187041 0.0272052
RightToes  -41.4015 -0.229775 -0.322901
198
root  1.58298 33.8419 -8.67357 -3.66453 45.5055 -5.235
LeftUpLeg  1.177 -10.3041 12.3307
LeftLeg  12.3153 -11.2976 -1.70518
LeftFoot  -4.58124 0.0363526 0.908781
LeftToes  -27.3954 8.556e-007 1.17171e-007
Spine  1.2118 1.21612 -0.760589
Spine1  2.12296 2.41577 -1.49738
RightShoulder  0.0511978 6.7105 5.72175
RightArm  -21.4555 -4.65321 75.5847
RightForeArm  24.7905 26.5417 5.04837
RightHand  0.991426 -12.4221 -8.71647
LeftShoulder1  0.0363998 -1.7593 -7.4503
LeftArm  -8.72602 3.91002 -69.9736
LeftForeArm  24.9903 -29.6896 -5.76358
LeftHand  0.106398 2.73557 4.07358
HEad  -47.9268 10.1308 -12.302
RightUpLeg  -6.73269 -11.7405 -2.3215
RightLeg  11.4888 1.13245 0.156451
RightFoot  5.27384 0.0121784 0.113105
RightToes  -40.1153 -0.219405 -0.315773
199
root  1.39247 33.8406 -8.16242 -4.39858 45.7337 -6.47065
LeftUpLeg  1.4187 -10.4124 13.7348
LeftLeg  12.2257 -9.69231 -1.45028
LeftFoot  -4.42212 0.0288155 0.746311
LeftToes  -27.9879 8.556e-007 1.17171e-007
Spine  1.15222 1.19541 -0.429035
Spine1  2.00854 2.40275 -0.879545
RightShoulder  0.0531383 6.55468 5.69583
RightArm  -19.6138 -4.21839 75.6746
RightForeArm  24.521 28.8697 5.57528
RightHand  0.956528 -12.1253 -8.61317
LeftShoulder1  0.0337263 -1.82777 -7.47094
LeftArm  -9.04606 4.91742 -70.1086
LeftForeArm  25.2741 -28.1113 -5.39816
LeftHand  0.110446 2.86256 4.03842
HEad  -48.0515 10.0133 -12.2521
RightUpLeg  -6.2326 -11.8045 -0.682768
RightLeg  11.0361 0.876659 0.114394
RightFoot  4.85806 0.0123666 0.0860104
RightToes  -38.6266 -0.207606 -0.307233
200
root  1.21655 33.8447 -7.67708 -4.9704 46.189 -7.55587
LeftUpLeg  1.47297 -10.0587 14.8565
LeftLeg  12.2606 -7.31511 -1.10182
LeftFoot  -4.08633 0.0182872 0.512592
LeftToes  -28.6295 8.556e-007 1.17171e-007
Spine  1.05288 1.12361 -0.131421
Spine1  1.82558 2.27857 -0.317507
RightShoulder  0.0533045 6.37746 5.66065
RightArm  -18.2421 -4.4724 75.7477
RightForeArm  24.7548 30.9065 6.05663
RightHand  0.924798 -11.9267 -8.46138
LeftShoulder1  0.0322809 -1.95528 -7.5813
LeftArm  -9.57224 6.01116 -70.2363
LeftForeArm  25.6679 -25.2301 -4.7587
LeftHand  0.122602 3.18489 4.02916
HEad  -48.1337 9.7623 -12.191
RightUpLeg  -5.66801 -11.6333 0.794149
RightLeg  10.2986 0.155939 0.0194339
RightFoot  4.52448 0.014005 0.0247017
RightToes  -37.544 -0.199167 -0.300832
201
root  1.05518 33.847 -7.22095 -5.21395 46.5947 -8.20508
LeftUpLeg  1.50553 -8.86316 15.5322
LeftLeg  12.3265 -4.32047 -0.657637
LeftFoot  -3.60169 0.00804396 0.255833
LeftToes  -28.8677 8.556e-007 1.17171e-007
Spine  0.955551 1.09276 0.0645557
Spine1  1.64452 2.20048 0.0778925
RightShoulder  0.0525294 6.14968 5.63568
RightArm  -17.271 -5.28222 75.819
RightForeArm  24.9382 32.4287 6.43039
RightHand  0.88804 -11.7742 -8.22185
LeftShoulder1  0.0335967 -2.05373 -7.80007
LeftArm  -10.2741 7.06109 -70.2834
LeftForeArm  26.427 -21.3092 -3.93672
LeftHand  0.135251 3.65222 3.86294
HEad  -48.1846 9.33452 -12.1775
RightUpLeg  -5.31856 -12.0738 1.91635
RightLeg  9.89406 0.104235 0.0127204
RightFoot  4.02363 0.0117023 0.0192472
RightToes  -36.479 -0.190985 -0.294381
202
root  0.891371 33.8419 -6.79291 -5.24897 47.0382 -8.64642
LeftUpLeg  1.37067 -7.06694 15.9563
LeftLeg  12.4767 -0.815397 -0.127598
LeftFoot  -2.98825 0.000486918 0.0186588
LeftToes  -28.695 8.556e-007 1.17171e-007
Spine  0.889041 0.998757 0.180553
Spine1  1.49697 1.96155 0.359955
RightShoulder  0.0500899 5.98251 5.6614
RightArm  -16.5354 -6.30647 75.8809
RightForeArm  24.9544 32.8685 6.54081
RightHand  0.881212 -11.6619 -8.23832
LeftShoulder1  0.0435311 -2.09995 -7.9815
LeftArm  -11.65 8.35367 -70.2694
LeftForeArm  28.0816 -17.695 -3.21831
LeftHand  0.150928 4.31871 3.6254
HEad  -48.334 8.97778 -12.0834
RightUpLeg  -5.34266 -12.2161 2.9069
RightLeg  10.0367 -0.285999 -0.0304614
RightFoot  3.30787 0.0105214 -0.0040434
RightToes  -35.125 -0.180757 -0.285961
